<mxfile host="65bd71144e">
    <diagram id="WtMUhmbYOeD5CF7M5rq7" name="第 1 页">
        <mxGraphModel dx="1770" dy="1128" grid="1" gridSize="10" guides="1" tooltips="1" connect="1" arrows="1" fold="1" page="1" pageScale="1" pageWidth="827" pageHeight="1169" math="0" shadow="0">
            <root>
                <mxCell id="0"/>
                <mxCell id="1" parent="0"/>
                <mxCell id="3" value="&amp;lt;&amp;lt;include&amp;gt;&amp;gt;" style="edgeStyle=none;html=1;exitX=0;exitY=0.3333333333333333;exitDx=0;exitDy=0;exitPerimeter=0;entryX=1;entryY=0.3333333333333333;entryDx=0;entryDy=0;entryPerimeter=0;dashed=1;" edge="1" parent="1" source="10" target="11">
                    <mxGeometry relative="1" as="geometry"/>
                </mxCell>
                <mxCell id="4" value="&amp;lt;&amp;lt;include&amp;gt;&amp;gt;" style="edgeStyle=none;html=1;exitX=0;exitY=0.3333333333333333;exitDx=0;exitDy=0;exitPerimeter=0;entryX=1;entryY=0.3333333333333333;entryDx=0;entryDy=0;entryPerimeter=0;dashed=1;" edge="1" parent="1" source="10" target="20">
                    <mxGeometry relative="1" as="geometry"/>
                </mxCell>
                <mxCell id="52" style="edgeStyle=none;html=1;exitX=1;exitY=0.3333333333333333;exitDx=0;exitDy=0;exitPerimeter=0;entryX=0;entryY=0.5;entryDx=0;entryDy=0;" edge="1" parent="1" source="10" target="42">
                    <mxGeometry relative="1" as="geometry"/>
                </mxCell>
                <mxCell id="53" style="edgeStyle=none;html=1;exitX=1;exitY=0.3333333333333333;exitDx=0;exitDy=0;exitPerimeter=0;entryX=0;entryY=0.5;entryDx=0;entryDy=0;" edge="1" parent="1" source="10" target="47">
                    <mxGeometry relative="1" as="geometry"/>
                </mxCell>
                <mxCell id="55" style="edgeStyle=none;html=1;exitX=1;exitY=0.3333333333333333;exitDx=0;exitDy=0;exitPerimeter=0;entryX=0;entryY=0.5;entryDx=0;entryDy=0;" edge="1" parent="1" source="10" target="16">
                    <mxGeometry relative="1" as="geometry"/>
                </mxCell>
                <mxCell id="56" style="edgeStyle=none;html=1;exitX=1;exitY=0.3333333333333333;exitDx=0;exitDy=0;exitPerimeter=0;entryX=0;entryY=0.5;entryDx=0;entryDy=0;" edge="1" parent="1" source="10" target="45">
                    <mxGeometry relative="1" as="geometry"/>
                </mxCell>
                <mxCell id="57" style="edgeStyle=none;html=1;exitX=1;exitY=0.3333333333333333;exitDx=0;exitDy=0;exitPerimeter=0;entryX=0;entryY=0.5;entryDx=0;entryDy=0;" edge="1" parent="1" source="10" target="46">
                    <mxGeometry relative="1" as="geometry"/>
                </mxCell>
                <mxCell id="10" value="运维人员" style="shape=umlActor;verticalLabelPosition=bottom;verticalAlign=top;html=1;" vertex="1" parent="1">
                    <mxGeometry x="200" y="340" width="30" height="60" as="geometry"/>
                </mxCell>
                <mxCell id="11" value="服务负责人" style="shape=umlActor;verticalLabelPosition=bottom;verticalAlign=top;html=1;" vertex="1" parent="1">
                    <mxGeometry x="90" y="270" width="30" height="60" as="geometry"/>
                </mxCell>
                <mxCell id="48" style="edgeStyle=none;html=1;exitX=1;exitY=0.3333333333333333;exitDx=0;exitDy=0;exitPerimeter=0;entryX=0;entryY=0.5;entryDx=0;entryDy=0;" edge="1" parent="1" source="14" target="41">
                    <mxGeometry relative="1" as="geometry"/>
                </mxCell>
                <mxCell id="49" style="edgeStyle=none;html=1;exitX=1;exitY=0.3333333333333333;exitDx=0;exitDy=0;exitPerimeter=0;entryX=0;entryY=0.5;entryDx=0;entryDy=0;" edge="1" parent="1" source="14" target="43">
                    <mxGeometry relative="1" as="geometry"/>
                </mxCell>
                <mxCell id="50" style="edgeStyle=none;html=1;exitX=1;exitY=0.3333333333333333;exitDx=0;exitDy=0;exitPerimeter=0;entryX=0;entryY=0.5;entryDx=0;entryDy=0;" edge="1" parent="1" source="14" target="42">
                    <mxGeometry relative="1" as="geometry"/>
                </mxCell>
                <mxCell id="51" style="edgeStyle=none;html=1;exitX=1;exitY=0.3333333333333333;exitDx=0;exitDy=0;exitPerimeter=0;entryX=0;entryY=0.5;entryDx=0;entryDy=0;" edge="1" parent="1" source="14" target="47">
                    <mxGeometry relative="1" as="geometry"/>
                </mxCell>
                <mxCell id="14" value="算法工程师" style="shape=umlActor;verticalLabelPosition=bottom;verticalAlign=top;html=1;" vertex="1" parent="1">
                    <mxGeometry x="200" y="550" width="30" height="60" as="geometry"/>
                </mxCell>
                <mxCell id="16" value="将Kubernetes中运行的服务&#10;配置到系统中，选择合适的时序&#10;建模方法实现服务的自动扩缩容&#10;" style="ellipse;" vertex="1" parent="1">
                    <mxGeometry x="340" y="80" width="190" height="80" as="geometry"/>
                </mxCell>
                <mxCell id="20" value="团队SRE" style="shape=umlActor;verticalLabelPosition=bottom;verticalAlign=top;html=1;" vertex="1" parent="1">
                    <mxGeometry x="90" y="410" width="30" height="60" as="geometry"/>
                </mxCell>
                <mxCell id="41" value="将新研发的模型添加到系统的&#10;模型仓库中，供服务运维人员&#10;应用于服务自动扩缩容&#10;" style="ellipse;" vertex="1" parent="1">
                    <mxGeometry x="340" y="800" width="190" height="80" as="geometry"/>
                </mxCell>
                <mxCell id="42" value="通过可视化的图表观察服务&#10;的运行状态，以及自动扩缩容&#10;的执行效果" style="ellipse;" vertex="1" parent="1">
                    <mxGeometry x="340" y="560" width="190" height="80" as="geometry"/>
                </mxCell>
                <mxCell id="43" value="导出模型的历史时序数据&#10;" style="ellipse;" vertex="1" parent="1">
                    <mxGeometry x="340" y="680" width="190" height="80" as="geometry"/>
                </mxCell>
                <mxCell id="45" value="将不再需要自动扩缩容的&#10;服务从系统中删除&#10;" style="ellipse;" vertex="1" parent="1">
                    <mxGeometry x="340" y="200" width="190" height="80" as="geometry"/>
                </mxCell>
                <mxCell id="46" value="查找系统中已配置好的&#10;服务信息，如服务名称、标签、使&#10;用的时序建模方法等&#10;" style="ellipse;" vertex="1" parent="1">
                    <mxGeometry x="340" y="320" width="190" height="80" as="geometry"/>
                </mxCell>
                <mxCell id="47" value="查找系统中已登记好的自动&#10;扩缩容时序建模方法&#10;" style="ellipse;" vertex="1" parent="1">
                    <mxGeometry x="340" y="440" width="190" height="80" as="geometry"/>
                </mxCell>
            </root>
        </mxGraphModel>
    </diagram>
</mxfile>